<svg id="Capa_1" enable-background="new 0 0 511.623 511.623" height="512" viewBox="0 0 511.623 511.623" width="512" xmlns="http://www.w3.org/2000/svg"><g><path d="m347.581 484.509h-134.851c-7.595 0-13.859-5.951-14.248-13.536l-15.732-306.764h195.934l-16.858 306.816c-.415 7.563-6.67 13.484-14.245 13.484z" fill="#eaa895"/><path d="m375.688 154.823h-10.174l-3.958-19.384c-1.74-8.521-9.236-14.641-17.933-14.641l-55.41 2.071-12.702-57.594c-2.863-12.593-7.361-20.347-19.245-25.383l-76.612-32.622c-3.122-1.323-6.573-1.353-9.717-.079-3.144 1.272-5.604 3.692-6.927 6.815-1.324 3.122-.951 3.329.321 6.473 1.273 3.143 4.168 3.91 7.284 5.23l77.76 32.18c4.395 1.862 7.651 5.753 8.709 10.405l12.436 52.505h-52.224c-8.827 0-16.397 6.3-17.999 14.981l-3.515 19.044h-10.035c-11.374 0-20.595 9.221-20.595 20.595v6.913c0 11.375 9.221 20.595 20.595 20.595h189.941c11.375 0 20.595-9.22 20.595-20.595v-6.913c0-11.375-9.221-20.596-20.595-20.596z" fill="#f9fbfc"/><g fill="#e9c278"><path d="m357.923 372.798h94.429l7.321-136.073c.255-4.747-3.386-8.802-8.133-9.057l-14.455-.778c-4.747-.256-8.802 3.385-9.057 8.132l-6.849 124.623v-130.252c0-6.816-5.526-12.342-12.342-12.342h-7.006c-6.816 0-12.342 5.526-12.342 12.342v129.56l-7.243-123.931c-.255-4.747-4.311-8.388-9.057-8.132l-14.455.778c-4.747.255-8.388 4.31-8.132 9.057z"/><path d="m486.251 372.798 10.687-122.989c.412-4.736-3.094-8.909-7.83-9.32l-14.421-1.253c-4.736-.412-8.909 3.094-9.32 7.83l-10.925 125.732z"/><path d="m355.833 372.798-10.925-125.732c-.412-4.736-4.584-8.242-9.32-7.83l-14.421 1.253c-4.736.411-8.241 4.584-7.83 9.32l10.687 122.989z"/></g><path d="m454.983 297.141v22.147c0 22.232-18.663 40.255-41.684 40.255h-15.929c-23.022 0-41.684-18.023-41.684-40.255v-22.147c0-6.001-5.038-10.866-11.252-10.866h-26.055c-6.624 0-11.815 5.498-11.204 11.868l15.034 156.797c1.256 13.099 12.636 23.118 26.258 23.118h113.733c13.622 0 25.002-10.019 26.258-23.118l15.034-156.797c.611-6.369-4.58-11.868-11.204-11.868h-26.055c-6.213.001-11.25 4.865-11.25 10.866z" fill="#f9fbfc"/><g fill="#eaa895"><path d="m500.553 304.132c0 1.354.875 2.494 2.086 2.916l.572-5.972c-1.5.216-2.658 1.495-2.658 3.056z"/><path d="m500.553 324.119c0 .485.121.938.32 1.347l.306-3.198c-.387.518-.626 1.154-.626 1.851z"/><path d="m483.667 287.245c.885 0 1.678-.375 2.243-.97h-4.486c.565.595 1.358.97 2.243.97z"/><path d="m494.036 290.662c-1.712 0-3.1 1.388-3.1 3.101 0 1.712 1.388 3.1 3.1 3.1s3.1-1.388 3.1-3.1c.001-1.713-1.387-3.101-3.1-3.101z"/><path d="m483.667 301.031c-1.712 0-3.1 1.388-3.1 3.1s1.388 3.1 3.1 3.1 3.1-1.388 3.1-3.1c0-1.711-1.388-3.1-3.1-3.1z"/><path d="m473.992 290.729c-1.712 0-3.1 1.388-3.1 3.101 0 1.712 1.388 3.1 3.1 3.1s3.1-1.388 3.1-3.1-1.388-3.101-3.1-3.101z"/><path d="m473.992 290.729c-1.712 0-3.1 1.388-3.1 3.101 0 1.712 1.388 3.1 3.1 3.1s3.1-1.388 3.1-3.1-1.388-3.101-3.1-3.101z"/><path d="m474.082 310.706c-1.712 0-3.1 1.388-3.1 3.1s1.388 3.1 3.1 3.1 3.1-1.388 3.1-3.1c0-1.711-1.388-3.1-3.1-3.1z"/><path d="m494.036 310.649c-1.712 0-3.1 1.388-3.1 3.1s1.388 3.1 3.1 3.1 3.1-1.388 3.1-3.1c.001-1.712-1.387-3.1-3.1-3.1z"/><path d="m483.667 321.018c-1.712 0-3.1 1.388-3.1 3.1s1.388 3.1 3.1 3.1 3.1-1.388 3.1-3.1-1.388-3.1-3.1-3.1z"/><path d="m494.036 330.635c-1.712 0-3.1 1.388-3.1 3.1s1.388 3.1 3.1 3.1 3.1-1.388 3.1-3.1c.001-1.711-1.387-3.1-3.1-3.1z"/><path d="m483.667 341.005c-1.712 0-3.1 1.388-3.1 3.1s1.388 3.1 3.1 3.1 3.1-1.388 3.1-3.1-1.388-3.1-3.1-3.1z"/><path d="m494.036 350.622c-1.712 0-3.1 1.388-3.1 3.1s1.388 3.1 3.1 3.1 3.1-1.388 3.1-3.1c.001-1.712-1.387-3.1-3.1-3.1z"/><path d="m483.667 360.992c-1.712 0-3.1 1.388-3.1 3.1s1.388 3.1 3.1 3.1 3.1-1.388 3.1-3.1-1.388-3.1-3.1-3.1z"/><path d="m494.036 370.609c-1.712 0-3.1 1.388-3.1 3.1s1.388 3.1 3.1 3.1c.759 0 1.445-.284 1.984-.736l.413-4.307c-.568-.701-1.424-1.157-2.397-1.157z"/><path d="m483.667 380.978c-1.712 0-3.1 1.388-3.1 3.1s1.388 3.1 3.1 3.1 3.1-1.388 3.1-3.1c0-1.711-1.388-3.1-3.1-3.1z"/><path d="m494.036 390.595c-1.712 0-3.1 1.388-3.1 3.1 0 1.711 1.387 3.099 3.098 3.1l.589-6.141c-.191-.036-.386-.059-.587-.059z"/><path d="m483.667 400.965c-1.712 0-3.1 1.388-3.1 3.101 0 1.712 1.388 3.1 3.1 3.1s3.1-1.388 3.1-3.1c0-1.713-1.388-3.101-3.1-3.101z"/><path d="m490.936 413.683c0 1.012.492 1.901 1.242 2.467l.503-5.243c-1.03.504-1.745 1.552-1.745 2.776z"/><path d="m483.667 420.952c-1.712 0-3.1 1.388-3.1 3.1s1.388 3.1 3.1 3.1 3.1-1.388 3.1-3.1-1.388-3.1-3.1-3.1z"/><path d="m483.667 440.938c-1.712 0-3.1 1.388-3.1 3.1s1.388 3.1 3.1 3.1 3.1-1.388 3.1-3.1c0-1.711-1.388-3.1-3.1-3.1z"/><path d="m483.667 460.925c-1.712 0-3.1 1.388-3.1 3.1s1.388 3.1 3.1 3.1c.07 0 .136-.016.205-.021.999-1.39 1.855-2.884 2.556-4.461-.509-1.014-1.548-1.718-2.761-1.718z"/><path d="m474.05 330.635c-1.712 0-3.1 1.388-3.1 3.1s1.388 3.1 3.1 3.1 3.1-1.388 3.1-3.1c0-1.711-1.388-3.1-3.1-3.1z"/><path d="m474.05 350.622c-1.712 0-3.1 1.388-3.1 3.1s1.388 3.1 3.1 3.1 3.1-1.388 3.1-3.1-1.388-3.1-3.1-3.1z"/><path d="m474.05 370.609c-1.712 0-3.1 1.388-3.1 3.1s1.388 3.1 3.1 3.1 3.1-1.388 3.1-3.1-1.388-3.1-3.1-3.1z"/><path d="m474.05 390.595c-1.712 0-3.1 1.388-3.1 3.1s1.388 3.1 3.1 3.1 3.1-1.388 3.1-3.1c0-1.711-1.388-3.1-3.1-3.1z"/><path d="m474.05 410.582c-1.712 0-3.1 1.388-3.1 3.1s1.388 3.1 3.1 3.1 3.1-1.388 3.1-3.1-1.388-3.1-3.1-3.1z"/><path d="m463.569 400.907c-1.712 0-3.1 1.388-3.1 3.1s1.388 3.1 3.1 3.1 3.1-1.388 3.1-3.1-1.388-3.1-3.1-3.1z"/><path d="m463.658 420.884c-1.712 0-3.1 1.388-3.1 3.1s1.388 3.1 3.1 3.1 3.1-1.388 3.1-3.1-1.388-3.1-3.1-3.1z"/><path d="m474.05 430.569c-1.712 0-3.1 1.388-3.1 3.1s1.388 3.1 3.1 3.1 3.1-1.388 3.1-3.1-1.388-3.1-3.1-3.1z"/><path d="m463.68 440.938c-1.712 0-3.1 1.388-3.1 3.1s1.388 3.1 3.1 3.1 3.1-1.388 3.1-3.1c0-1.711-1.388-3.1-3.1-3.1z"/><path d="m474.05 450.556c-1.712 0-3.1 1.388-3.1 3.1s1.388 3.1 3.1 3.1 3.1-1.388 3.1-3.1-1.388-3.1-3.1-3.1z"/><path d="m463.68 467.126c1.712 0 3.1-1.388 3.1-3.1s-1.388-3.1-3.1-3.1-3.1 1.388-3.1 3.1 1.388 3.1 3.1 3.1z"/><path d="m474.05 470.542c-1.712 0-3.1 1.388-3.1 3.101 0 1.03.508 1.936 1.281 2.5 1.736-.69 3.383-1.55 4.913-2.567-.037-1.681-1.405-3.034-3.094-3.034z"/><path d="m454.063 450.556c-1.712 0-3.1 1.388-3.1 3.1s1.388 3.1 3.1 3.1 3.1-1.388 3.1-3.1-1.388-3.1-3.1-3.1z"/><path d="m440.593 464.026c0 1.712 1.388 3.1 3.1 3.1s3.1-1.388 3.1-3.1-1.388-3.1-3.1-3.1c-1.712-.001-3.1 1.387-3.1 3.1z"/><path d="m454.063 470.542c-1.712 0-3.1 1.388-3.1 3.101 0 1.712 1.388 3.1 3.1 3.1s3.1-1.388 3.1-3.1c0-1.713-1.388-3.101-3.1-3.101z"/><path d="m420.607 464.026c0 1.712 1.388 3.1 3.1 3.1s3.1-1.388 3.1-3.1-1.388-3.1-3.1-3.1c-1.712-.001-3.1 1.387-3.1 3.1z"/><path d="m430.976 473.643c0 1.712 1.388 3.1 3.1 3.1s3.1-1.388 3.1-3.1-1.388-3.101-3.1-3.101-3.1 1.388-3.1 3.101z"/><path d="m400.62 464.026c0 1.712 1.388 3.1 3.1 3.1s3.1-1.388 3.1-3.1-1.388-3.1-3.1-3.1c-1.712-.001-3.1 1.387-3.1 3.1z"/><path d="m410.989 473.643c0 1.712 1.388 3.1 3.1 3.1s3.1-1.388 3.1-3.1-1.388-3.101-3.1-3.101-3.1 1.388-3.1 3.101z"/><path d="m380.633 464.026c0 1.712 1.388 3.1 3.1 3.1s3.1-1.388 3.1-3.1-1.388-3.1-3.1-3.1-3.1 1.387-3.1 3.1z"/><path d="m391.003 473.643c0 1.712 1.388 3.1 3.1 3.1s3.1-1.388 3.1-3.1-1.388-3.101-3.1-3.101-3.1 1.388-3.1 3.101z"/><path d="m360.647 464.026c0 1.712 1.388 3.1 3.1 3.1s3.1-1.388 3.1-3.1-1.388-3.1-3.1-3.1c-1.713-.001-3.1 1.387-3.1 3.1z"/><path d="m371.016 473.643c0 1.712 1.388 3.1 3.1 3.1s3.1-1.388 3.1-3.1-1.388-3.101-3.1-3.101-3.1 1.388-3.1 3.101z"/><path d="m343.76 460.925c-1.712 0-3.1 1.388-3.1 3.1s1.388 3.1 3.1 3.1 3.1-1.388 3.1-3.1-1.388-3.1-3.1-3.1z"/><path d="m354.129 476.743c1.712 0 3.1-1.388 3.1-3.1s-1.388-3.101-3.1-3.101-3.1 1.388-3.1 3.101c0 1.712 1.388 3.1 3.1 3.1z"/><path d="m323.773 460.925c-.065 0-.126.016-.191.02.649 1.807 1.482 3.527 2.51 5.118.48-.546.781-1.254.781-2.037.001-1.713-1.387-3.101-3.1-3.101z"/><path d="m334.143 470.542c-1.13 0-2.109.611-2.65 1.514 1.593 1.297 3.347 2.407 5.225 3.313.332-.493.526-1.087.526-1.726-.001-1.713-1.389-3.101-3.101-3.101z"/></g><path d="m257.25 478.214h-226.035c-7.631 0-13.983-5.86-14.597-13.467l-2.944-36.499c-.688-8.524 6.045-15.822 14.597-15.822h232.001c8.564 0 15.301 7.317 14.594 15.852l-3.022 36.499c-.628 7.594-6.974 13.437-14.594 13.437z" fill="#e9c278"/><g fill="#f9fbfc"><path d="m262.859 417.943c.303.099.619.165.954.165 1.712 0 3.1-1.388 3.1-3.1 0-.382-.078-.743-.204-1.08-1.073-.527-2.215-.936-3.419-1.188z"/><path d="m271.083 424.625c0 1.712 1.388 3.1 3.1 3.1.244 0 .479-.035.706-.088.085-2.146-.287-4.206-1.05-6.077-1.548.172-2.756 1.47-2.756 3.065z"/><path d="m271.083 444.612c0 1.392.924 2.556 2.188 2.948l.497-6.006c-1.514.204-2.685 1.488-2.685 3.058z"/><path d="m263.813 451.881c-1.712 0-3.1 1.388-3.1 3.1s1.388 3.1 3.1 3.1 3.1-1.388 3.1-3.1c.001-1.712-1.388-3.1-3.1-3.1z"/><path d="m263.813 431.856c-1.712 0-3.1 1.388-3.1 3.1s1.388 3.1 3.1 3.1 3.1-1.388 3.1-3.1c.001-1.712-1.388-3.1-3.1-3.1z"/><path d="m271.083 464.598c0 .648.2 1.249.54 1.746.099-.513.177-1.034.221-1.566l.2-2.416c-.59.564-.961 1.355-.961 2.236z"/><path d="m263.813 471.868c-1.712 0-3.1 1.388-3.1 3.1 0 1.007.488 1.893 1.232 2.459 1.831-.62 3.501-1.589 4.93-2.837-.188-1.532-1.479-2.722-3.062-2.722z"/><path d="m243.827 451.881c-1.712 0-3.1 1.388-3.1 3.1s1.388 3.1 3.1 3.1 3.1-1.388 3.1-3.1-1.388-3.1-3.1-3.1z"/><path d="m254.196 461.498c-1.712 0-3.1 1.388-3.1 3.1s1.388 3.1 3.1 3.1 3.1-1.388 3.1-3.1c.001-1.712-1.388-3.1-3.1-3.1z"/><path d="m243.827 471.868c-1.712 0-3.1 1.388-3.1 3.1s1.388 3.101 3.1 3.101 3.1-1.388 3.1-3.101c0-1.712-1.388-3.1-3.1-3.1z"/><path d="m223.84 451.881c-1.712 0-3.1 1.388-3.1 3.1s1.388 3.1 3.1 3.1 3.1-1.388 3.1-3.1-1.388-3.1-3.1-3.1z"/><path d="m231.109 464.598c0 1.712 1.388 3.1 3.1 3.1s3.1-1.388 3.1-3.1-1.388-3.1-3.1-3.1-3.1 1.388-3.1 3.1z"/><path d="m223.84 471.868c-1.712 0-3.1 1.388-3.1 3.1s1.388 3.101 3.1 3.101 3.1-1.388 3.1-3.101c0-1.712-1.388-3.1-3.1-3.1z"/><path d="m203.853 451.881c-1.712 0-3.1 1.388-3.1 3.1s1.388 3.1 3.1 3.1 3.1-1.388 3.1-3.1c.001-1.712-1.388-3.1-3.1-3.1z"/><path d="m211.123 464.598c0 1.712 1.388 3.1 3.1 3.1s3.1-1.388 3.1-3.1-1.388-3.1-3.1-3.1-3.1 1.388-3.1 3.1z"/><path d="m203.853 471.868c-1.712 0-3.1 1.388-3.1 3.1s1.388 3.101 3.1 3.101 3.1-1.388 3.1-3.101c.001-1.712-1.388-3.1-3.1-3.1z"/><path d="m183.867 451.881c-1.712 0-3.1 1.388-3.1 3.1s1.388 3.1 3.1 3.1 3.1-1.388 3.1-3.1-1.388-3.1-3.1-3.1z"/><circle cx="194.236" cy="464.598" r="3.1"/><path d="m183.867 471.868c-1.712 0-3.1 1.388-3.1 3.1s1.388 3.101 3.1 3.101 3.1-1.388 3.1-3.101c0-1.712-1.388-3.1-3.1-3.1z"/><path d="m163.88 451.881c-1.712 0-3.1 1.388-3.1 3.1s1.388 3.1 3.1 3.1 3.1-1.388 3.1-3.1-1.388-3.1-3.1-3.1z"/><circle cx="174.249" cy="464.598" r="3.1"/><path d="m163.88 471.868c-1.712 0-3.1 1.388-3.1 3.1s1.388 3.101 3.1 3.101 3.1-1.388 3.1-3.101c0-1.712-1.388-3.1-3.1-3.1z"/><path d="m143.893 451.881c-1.712 0-3.1 1.388-3.1 3.1s1.388 3.1 3.1 3.1 3.1-1.388 3.1-3.1-1.388-3.1-3.1-3.1z"/><circle cx="154.263" cy="464.598" r="3.1"/><path d="m143.893 471.868c-1.712 0-3.1 1.388-3.1 3.1s1.388 3.101 3.1 3.101 3.1-1.388 3.1-3.101c0-1.712-1.388-3.1-3.1-3.1z"/><path d="m123.906 451.881c-1.712 0-3.1 1.388-3.1 3.1s1.388 3.1 3.1 3.1 3.1-1.388 3.1-3.1c.001-1.712-1.388-3.1-3.1-3.1z"/><path d="m131.176 464.598c0 1.712 1.388 3.1 3.1 3.1s3.1-1.388 3.1-3.1-1.388-3.1-3.1-3.1-3.1 1.388-3.1 3.1z"/><path d="m123.906 471.868c-1.712 0-3.1 1.388-3.1 3.1s1.388 3.101 3.1 3.101 3.1-1.388 3.1-3.101c.001-1.712-1.388-3.1-3.1-3.1z"/><path d="m103.92 451.881c-1.712 0-3.1 1.388-3.1 3.1s1.388 3.1 3.1 3.1 3.1-1.388 3.1-3.1-1.388-3.1-3.1-3.1z"/><path d="m111.189 464.598c0 1.712 1.388 3.1 3.1 3.1s3.1-1.388 3.1-3.1-1.388-3.1-3.1-3.1-3.1 1.388-3.1 3.1z"/><path d="m103.92 471.868c-1.712 0-3.1 1.388-3.1 3.1s1.388 3.101 3.1 3.101 3.1-1.388 3.1-3.101c0-1.712-1.388-3.1-3.1-3.1z"/><path d="m83.933 451.881c-1.712 0-3.1 1.388-3.1 3.1s1.388 3.1 3.1 3.1 3.1-1.388 3.1-3.1-1.388-3.1-3.1-3.1z"/><path d="m91.202 464.598c0 1.712 1.388 3.1 3.1 3.1s3.1-1.388 3.1-3.1-1.388-3.1-3.1-3.1-3.1 1.388-3.1 3.1z"/><path d="m83.933 471.868c-1.712 0-3.1 1.388-3.1 3.1s1.388 3.101 3.1 3.101 3.1-1.388 3.1-3.101c0-1.712-1.388-3.1-3.1-3.1z"/><path d="m63.946 451.881c-1.712 0-3.1 1.388-3.1 3.1s1.388 3.1 3.1 3.1 3.1-1.388 3.1-3.1c.001-1.712-1.388-3.1-3.1-3.1z"/><path d="m71.216 464.598c0 1.712 1.388 3.1 3.1 3.1s3.1-1.388 3.1-3.1-1.388-3.1-3.1-3.1-3.1 1.388-3.1 3.1z"/><path d="m63.946 471.868c-1.712 0-3.1 1.388-3.1 3.1s1.388 3.101 3.1 3.101 3.1-1.388 3.1-3.101c.001-1.712-1.388-3.1-3.1-3.1z"/><path d="m43.96 451.881c-1.712 0-3.1 1.388-3.1 3.1s1.388 3.1 3.1 3.1 3.1-1.388 3.1-3.1-1.388-3.1-3.1-3.1z"/><path d="m51.229 464.598c0 1.712 1.388 3.1 3.1 3.1s3.1-1.388 3.1-3.1-1.388-3.1-3.1-3.1-3.1 1.388-3.1 3.1z"/><path d="m43.96 471.868c-1.712 0-3.1 1.388-3.1 3.1s1.388 3.101 3.1 3.101 3.1-1.388 3.1-3.101c0-1.712-1.388-3.1-3.1-3.1z"/><path d="m23.973 451.881c-1.712 0-3.1 1.388-3.1 3.1s1.388 3.1 3.1 3.1 3.1-1.388 3.1-3.1-1.388-3.1-3.1-3.1z"/><path d="m34.342 467.698c1.712 0 3.1-1.388 3.1-3.1s-1.388-3.1-3.1-3.1-3.1 1.388-3.1 3.1c0 1.713 1.388 3.1 3.1 3.1z"/><path d="m23.973 471.868c-1.396 0-2.563.929-2.951 2.198 1.427 1.386 3.13 2.481 5.02 3.196.629-.567 1.032-1.38 1.032-2.294-.001-1.712-1.389-3.1-3.101-3.1z"/><path d="m16.422 462.302.197 2.445c.046.567.133 1.12.24 1.666.371-.511.597-1.135.597-1.815 0-.915-.404-1.729-1.034-2.296z"/></g><path d="m144.771 240.514c108.381 0 130.073 68.33 133.803 102.854 1.278 11.827-7.947 22.152-19.808 22.152h-228.035c-11.865 0-21.092-10.331-19.807-22.161 3.75-34.526 25.477-102.845 133.847-102.845z" fill="#e9c278"/><g fill="#31373d"><path d="m495.576 478.241h-18.349c8.369-4.596 14.256-12.956 15.211-22.919l15.034-156.797c.391-4.076-.981-8.172-3.766-11.237-1.572-1.729-3.525-3.041-5.674-3.894l2.888-33.239c.291-3.354-.741-6.622-2.906-9.199-2.166-2.578-5.206-4.158-8.56-4.45l-14.421-1.253c-3.354-.29-6.622.741-9.2 2.906-.929.78-1.722 1.677-2.378 2.658l.209-3.878c.182-3.362-.958-6.593-3.208-9.098-2.249-2.505-5.339-3.985-8.701-4.165l-14.455-.778c-3.364-.19-6.592.958-9.097 3.209-1.3 1.167-2.316 2.563-3.025 4.102v-.816c0-9.01-7.33-16.34-16.34-16.34h-7.006c-9.01 0-16.339 7.33-16.339 16.34v1.783c-1.099-3.008-3.313-5.459-6.105-6.898l.978-17.806c11.33-2.191 19.915-12.179 19.915-24.14v-6.913c0-13.56-11.033-24.593-24.593-24.593h-6.91l-3.305-16.187c-2.111-10.336-11.299-17.838-21.849-17.838h-52.754l-11.567-51.049c-2.987-13.138-12.177-24.119-24.575-29.372l-79.927-34.034c-3.257-1.38-6.857-1.411-10.137-.083-3.28 1.327-5.847 3.852-7.227 7.109-1.381 3.258-1.41 6.858-.083 10.138 1.328 3.279 3.853 5.846 7.104 7.223l79.927 34.035c4.585 1.943 7.982 6.002 9.086 10.855l10.236 45.178h-46.411c-10.755 0-19.977 7.676-21.93 18.253l-2.912 15.772h-6.708c-13.56 0-24.593 11.033-24.593 24.593v6.913c0 11.906 8.506 21.86 19.759 24.112l1.704 33.222c-11.303-2.024-23.866-3.149-37.845-3.149-113.962 0-134.347 74.416-137.821 106.411-.737 6.782 1.449 13.579 5.998 18.648 4.528 5.047 11.01 7.942 17.783 7.942h1.861c-7.137 4.282-11.926 12.094-11.926 21.006 0 7.064 3.011 13.434 7.813 17.907h-.208c-5.189 0-10.184 2.187-13.702 6.002-3.518 3.813-5.296 8.967-4.88 14.138l2.944 36.498c.431 5.351 3.156 10.051 7.146 13.172h-3.734c-8.86 0-16.045 7.184-16.045 16.047s7.185 16.047 16.047 16.047h479.528c8.863 0 16.047-7.185 16.047-16.047.001-8.863-7.184-16.047-16.046-16.047zm-26.227-230.83c.106-1.227.684-2.338 1.627-3.13.837-.705 1.875-1.081 2.957-1.081.135 0 .271.006.407.019l14.421 1.253c2.533.219 4.414 2.459 4.194 4.991l-2.851 32.816h-23.784zm-37.329-12.175c.066-1.229.607-2.359 1.523-3.181.853-.766 1.937-1.181 3.074-1.181.084 0 .168.002.253.007l14.455.778c2.538.137 4.492 2.313 4.355 4.851l-2.885 53.618c-1.153 2.091-1.811 4.478-1.811 7.013v22.146c0 15.829-10.603 29.313-25.331 34.246zm-38.533-5.844c0-4.601 3.744-8.345 8.344-8.345h7.006c4.602 0 8.345 3.744 8.345 8.345v125.961c-1.277.127-2.573.192-3.884.192h-15.927c-1.311 0-2.607-.065-3.884-.192zm3.884 134.148h15.927c25.189 0 45.682-19.852 45.682-44.253v-22.146c0-3.787 3.254-6.868 7.254-6.868h26.055c2.115 0 4.119.872 5.5 2.391 1.291 1.421 1.903 3.231 1.724 5.097l-15.033 156.797c-1.067 11.119-10.644 19.503-22.279 19.503h-113.733c-11.636 0-21.213-8.384-22.28-19.503l-15.033-156.797c-.179-1.866.433-3.676 1.724-5.097 1.381-1.52 3.385-2.391 5.5-2.391h26.055c4 0 7.254 3.081 7.254 6.868v22.146c0 24.401 20.493 44.253 45.683 44.253zm-80.052-114.077c-.22-2.533 1.661-4.772 4.193-4.992l14.422-1.253c.137-.013.272-.019.407-.019 1.081 0 2.119.377 2.957 1.081.943.791 1.521 1.904 1.627 3.131l3.03 34.866h-23.785zm67.293 103.94c-14.52-5.042-24.929-18.429-24.929-34.115v-22.146c0-2.83-.83-5.467-2.244-7.721l-2.847-52.91c-.136-2.539 1.818-4.716 4.357-4.852l14.453-.778c.084-.004.167-.007.25-.007 2.43 0 4.47 1.909 4.602 4.363zm-123.344-283.55c-1.673-7.356-6.819-13.504-13.757-16.444l-79.928-34.036c-1.291-.547-2.292-1.563-2.818-2.863s-.514-2.728.032-4.019c.548-1.291 1.564-2.291 2.865-2.817.637-.259 1.305-.387 1.971-.387.693 0 1.385.139 2.04.417l79.927 34.034c10.045 4.256 17.487 13.148 19.905 23.783l11.166 49.28h-10.767zm-58.04 66.652c1.252-6.786 7.169-11.71 14.068-11.71h126.327c6.767 0 12.662 4.812 14.016 11.443l2.978 14.587h-160.032zm-34.08 45.826v-6.913c0-9.152 7.446-16.598 16.598-16.598h189.941c9.152 0 16.598 7.446 16.598 16.598v6.913c0 9.152-7.446 16.597-16.598 16.597h-189.94c-9.152.001-16.599-7.445-16.599-16.597zm-138.417 179.192c-4.572 0-8.774-1.878-11.832-5.286-3.035-3.382-4.493-7.918-4.001-12.446 3.242-29.85 22.385-99.279 129.874-99.279 107.495 0 126.603 69.434 129.83 99.286.489 4.527-.971 9.062-4.005 12.442-3.057 3.407-7.259 5.283-11.829 5.283zm226.519 112.693h-226.034c-5.508 0-10.17-4.301-10.612-9.79l-2.944-36.499c-.242-2.997.748-5.864 2.786-8.075 2.04-2.21 4.818-3.427 7.826-3.427h232.001c3.012 0 5.793 1.22 7.833 3.435s3.026 5.088 2.777 8.089l-3.021 36.499c-.455 5.477-5.116 9.768-10.612 9.768zm18.579-9.108 3.021-36.499c.428-5.178-1.344-10.341-4.863-14.163-3.519-3.823-8.519-6.016-13.715-6.016h-5.375c4.802-4.473 7.813-10.843 7.813-17.907 0-8.912-4.789-16.724-11.926-21.006h7.982c6.771 0 13.25-2.893 17.778-7.936 4.549-5.067 6.737-11.862 6.004-18.642-2.929-27.111-17.993-84.67-91.842-101.623l-1.764-34.393h183.391l-.882 16.056-12.932.696c-6.94.374-12.283 6.324-11.91 13.264l.209 3.877c-.656-.981-1.45-1.878-2.378-2.658-2.577-2.165-5.841-3.197-9.199-2.906l-14.422 1.253c-6.923.602-12.066 6.725-11.466 13.649l2.901 33.383c-1.999.855-3.812 2.122-5.291 3.749-2.785 3.064-4.157 7.16-3.766 11.237l15.033 156.797c.955 9.963 6.842 18.323 15.212 22.919h-64.763c3.982-3.112 6.707-7.797 7.15-13.131z"/><path d="m81.674 278.742c-1.833 0-3.484-1.268-3.899-3.132-.478-2.155.88-4.29 3.036-4.769l6.312-1.402c2.158-.477 4.289.88 4.769 3.036.478 2.155-.88 4.29-3.036 4.769l-6.312 1.402c-.291.065-.583.096-.87.096z"/><path d="m171.797 279.385c-.321 0-.647-.039-.972-.12l-6.273-1.568c-2.142-.536-3.444-2.706-2.909-4.847.536-2.143 2.707-3.444 4.847-2.909l6.273 1.568c2.142.536 3.444 2.706 2.909 4.847-.454 1.817-2.084 3.029-3.875 3.029z"/><path d="m132.418 299.17h-6.466c-2.207 0-3.997-1.79-3.997-3.997 0-2.208 1.79-3.997 3.997-3.997h6.466c2.207 0 3.997 1.79 3.997 3.997s-1.789 3.997-3.997 3.997z"/><path d="m212.426 293.135c-1.3 0-2.575-.632-3.344-1.801-1.213-1.844-.702-4.322 1.143-5.536l5.402-3.554c1.844-1.212 4.323-.702 5.536 1.143 1.213 1.843.702 4.322-1.143 5.536l-5.402 3.554c-.675.445-1.438.658-2.192.658z"/></g></g></svg>